# AST/ASF file generated using VICON BodyLanguage
# -----------------------------------------------
:version 1.10
:name VICON
:units
  mass 1.0
  length 0.45
  angle deg
:documentation
   .ast/.asf automatically generated from VICON data using
   VICON BodyBuilder and BodyLanguage model FoxedUp or BRILLIANT.MOD
:root
   order TX TY TZ RX RY RZ
   axis XYZ
   position 0 0 0  
   orientation 0 0 0 
:bonedata
  begin
     id 1 
     name lhipjoint
     direction 0.822369 -0.411937 0.392449 
     length 3.8167 
     axis 0 0 0  XYZ
  end
  begin
     id 2 
     name lfemur
     direction 0.34202 -0.939693 0  
     length 6.16791  
     axis 0 0 20  XYZ
    dof rx ry rz
    limits (-160.0 20.0)
           (-70.0 70.0)
           (-60.0 70.0)
  end
  begin
     id 3 
     name ltibia
     direction 0.34202 -0.939693 0   
     length 7.07101   
     axis 0 0 20   XYZ
    dof rx
    limits (-10.0 170.0)
  end
  begin
     id 4 
     name lfoot
     direction 0.028254 -0.0776273 0.996582   
     length 1.66799   
     axis -90 7.62852e-016 20   XYZ
    dof rx rz
    limits (-45.0 90.0)
           (-70.0 20.0)
  end
  begin
     id 5 
     name ltoes
     direction 1.53483e-011 -4.21688e-011 1   
     length 0.851674   
     axis -90 7.62852e-016 20   XYZ
    dof rx
    limits (-90.0 20.0)
  end
  begin
     id 6 
     name rhipjoint
     direction -0.822466 -0.411836 0.392353   
     length 3.81764  
     axis 0 0 0  XYZ 
  end
  begin
     id 7 
     name rfemur
     direction -0.34202 -0.939693 0   
     length 6.28636   
     axis 0 0 -20   XYZ
    dof rx ry rz
    limits (-160.0 20.0)
           (-70.0 70.0)
           (-70.0 60.0)
  end
  begin
     id 8 
     name rtibia
     direction -0.34202 -0.939693 0   
     length 6.85621   
     axis 0 0 -20   XYZ
    dof rx
    limits (-10.0 170.0)
 end
 begin
     id 9 
     name rfoot
     direction -0.0553036 -0.151945 0.98684   
     length 1.57293  
     axis -90 -7.62852e-016 -20   XYZ
    dof rx rz
    limits (-45.0 90.0)
           (-20.0 70.0)
  end
  begin
     id 10 
     name rtoes
     direction -1.53592e-011 -4.21964e-011 1   
     length 0.802812   
     axis -90 -7.62852e-016 -20   XYZ
    dof rx
    limits (-90.0 20.0)
  end
  begin
     id 11 
     name lowerback
     direction 0.00654913 0.996475 -0.0836396   
     length 1.97212   
     axis 0 0 0   XYZ
    dof rx ry rz
    limits (-20.0 45.0)
           (-30.0 30.0)
           (-30.0 30.0)
  end
  begin
     id 12 
     name upperback
     direction 0.0111875 0.994527 0.103877   
     length 1.89704   
     axis 0 0 0   XYZ
    dof rx ry rz
    limits (-20.0 45.0)
           (-30.0 30.0)
           (-30.0 30.0)
  end
  begin
     id 13 
     name thorax
     direction 0.00473652 0.989004 0.147814   
     length 1.94516   
     axis 0 0 0   XYZ
    dof rx ry rz
    limits (-20.0 45.0)
           (-30.0 30.0)
           (-30.0 30.0)
  end
  begin
     id 14 
     name lowerneck
     direction -0.00925808 0.999011 0.0434791   
     length 1.81771   
     axis 0 0 0   XYZ
    dof rx ry rz
    limits (-20.0 45.0)
           (-30.0 30.0)
           (-30.0 30.0)
  end
  begin
     id 15 
     name upperneck
     direction 0.00451595 0.964412 -0.264365   
     length 1.80434   
     axis 0 0 0   XYZ
    dof rx ry rz
    limits (-20.0 45.0)
           (-30.0 30.0)
           (-30.0 30.0)
  end
  begin
     id 16
     name head
     direction -0.00110849 0.995756 -0.0920241  
     length 1.84006  
     axis 0 0 0   XYZ
    dof rx ry rz
    limits (-20.0 45.0)
           (-30.0 30.0)
           (-30.0 30.0)
  end
  begin
     id 17 
     name lclavicle
     direction 0.921253 0.385213 0.0538957  
     length 3.67415  
     axis 0 0 0   XYZ
    dof ry rz
    limits (-20.0 10.0)
           (0.0 20.0)
  end
  begin
     id 18 
     name lhumerus
     direction 1 -4.48961e-011 6.73441e-028   
     length 4.32712   
     axis 180 -30 -90   XYZ
    dof rx ry rz
    limits (-60.0 90.0)
           (-90.0 90.0)
           (-90.0 90.0)
  end
  begin
     id 19
     name lradius
     direction 1 -4.48985e-011 -9.53507e-028   
     length 3.28587   
     axis 180 -30 -90   XYZ
    dof rx
    limits (-10.0 170.0)
  end
  begin
     id 20
     name lwrist
     direction 1 -4.48951e-011 -4.67472e-027   
     length 1.64293   
     axis 1.65735e-015 90 90   XYZ
    dof ry
    limits (-180.0 0.0)
 end
  begin
     id 21 
     name lhand
     direction 1 -4.48946e-011 -9.34945e-027   
     length 0.433158   
     axis 5.96574e-015 90 90   XYZ
    dof rx rz
    limits (-90.0 90.0)
           (-45.0 45.0)
  end
  begin
     id 22 
     name lfingers
     direction 1 -4.48882e-011 -1.86989e-026   
     length 0.349224   
     axis 1.19315e-014 90 90   XYZ
    dof rx
    limits (0.0 90.0)
  end
  begin
     id 23
     name lthumb
     direction 0.707107 -6.3493e-011 0.707107   
     length 0.501417   
     axis -90 45 2.85299e-015   XYZ
    dof rx rz
    limits (-45.0 45.0)
           (-45.0 45.0)
  end
  begin
     id 24 
     name rclavicle
     direction -0.884378 0.46502 -0.0403866   
     length 3.50218  
     axis 0 0 0   XYZ 
    dof ry rz
    limits (-10.0 20.0)
           (-20.0 0.0)
  end
  begin
     id 25 
     name rhumerus
     direction -1 -4.48964e-011 1.58188e-027  
     length 4.29104   
     axis 180 30 90   XYZ
    dof rx ry rz
    limits (-90.0 60.0)
           (-90.0 90.0)
           (-90.0 90.0)
  end
  begin
     id 26 
     name rradius
     direction -1 -4.48978e-011 -1.9722e-027   
     length 3.2272   
     axis 180 30 90   XYZ
    dof rx
    limits (-10.0 170.0)
  end
  begin
     id 27 
     name rwrist
     direction -1 -4.48969e-011 -4.67472e-027   
     length 1.6136   
     axis 1.65735e-015 -90 -90   XYZ
    dof ry
    limits (-180.0 0.0)
  end
  begin
     id 28
     name rhand
     direction -1 -4.48846e-011 -9.34945e-027   
     length 0.543623   
     axis 5.96574e-015 -90 -90   XYZ
    dof rx rz
    limits (-90.0 90.0)
           (-45.0 45.0)
  end
  begin
     id 29
     name rfingers
     direction -1 -4.49074e-011 -1.86989e-026   
     length 0.438283   
     axis 1.19315e-014 -90 -90   XYZ
    dof rx
    limits (0.0 90.0)
  end
  begin
     id 30
     name rthumb
     direction -0.707107 -6.34834e-011 0.707107   
     length 0.629289   
     axis -90 -45 -2.85299e-015   XYZ
    dof rx rz
    limits (-45.0 45.0)
           (-45.0 45.0)
  end
:hierarchy
  begin
    root lhipjoint rhipjoint lowerback
    lhipjoint lfemur
    lfemur ltibia
    ltibia lfoot
    lfoot ltoes
    rhipjoint rfemur
    rfemur rtibia
    rtibia rfoot
    rfoot rtoes
    lowerback upperback
    upperback thorax
    thorax lowerneck lclavicle rclavicle
    lowerneck upperneck
    upperneck head
    lclavicle lhumerus
    lhumerus lradius
    lradius lwrist
    lwrist lhand lthumb
    lhand lfingers
    rclavicle rhumerus
    rhumerus rradius
    rradius rwrist
    rwrist rhand rthumb
    rhand rfingers
  end

#!OML:ASF H:\GeneralSubjects\Female5\Project 1\Capture day 1\Session 1\Female5.ASF
:FULLY-SPECIFIED
:DEGREES
1
root -38.0175 16.2921 5.39681 -94.5136 86.6718 -106.987
lowerback 4.69283 2.75121 5.85104
upperback -9.56629 4.52623 -1.56562
thorax -12.4713 1.63539 -5.68852
lowerneck -15.959 6.7499 11.0244
upperneck 42.5312 11.5438 -4.09249
head 20.4271 6.59192 -1.17365
rclavicle 6.31141e-015 7.15625e-015
rhumerus -44.1518 17.9122 -91.2238
rradius 34.1817
rwrist -5.49324
rhand -19.3192 -22.6413
rfingers 7.12502
rthumb 6.99706 -52.5057
lclavicle 6.31141e-015 7.15625e-015
lhumerus -45.2939 -4.78584 75.8436
lradius 35.0184
lwrist -3.1116
lhand -24.8561 34.3046
lfingers 7.12502
lthumb 1.65057 64.278
rfemur 2.31237 24.6437 36.1957
rtibia -14.1576
rfoot -1.3968 -33.7345
rtoes -43.402
lfemur -4.72464 -31.487 -23.7167
ltibia -3.40194
lfoot -33.1561 -1.69661
ltoes -10.3276
2
root -38.0186 16.2926 5.40637 -96.4899 86.525 -109.007
lowerback 4.91937 2.72143 5.88426
upperback -9.70203 4.52499 -1.49927
thorax -12.7769 1.61904 -5.66167
lowerneck -15.967 6.80077 11.0935
upperneck 42.528 11.5828 -4.05276
head 20.4356 6.62389 -1.15473
rclavicle -1.2424e-014 1.98785e-015
rhumerus -44.3422 18.0368 -91.3158
rradius 34.1428
rwrist -5.49495
rhand -19.2028 -21.5925
rfingers 7.12502
rthumb 7.10938 -51.4531
lclavicle -1.2424e-014 1.98785e-015
lhumerus -45.5772 -4.48756 75.4695
lradius 34.6808
lwrist -2.72472
lhand -24.1679 33.2911
lfingers 7.12502
lthumb 2.31516 63.2583
rfemur 2.16195 24.5283 36.2901
rtibia -14.0612
rfoot -0.943189 -33.6435
rtoes -44.1322
lfemur -4.88839 -31.2651 -23.466
ltibia -3.36845
lfoot -32.7893 -1.55712
ltoes -10.8276
3
root -38.0185 16.2922 5.41414 -99.4245 86.412 -111.938
lowerback 5.1346 2.68202 5.8864
upperback -9.79449 4.50193 -1.43685
thorax -13.0298 1.59767 -5.61467
lowerneck -16.005 6.84848 11.1491
upperneck 42.5957 11.6485 -4.0293
head 20.506 6.66431 -1.13173
rclavicle 2.40281e-014 -3.97569e-016
rhumerus -44.5233 18.3048 -91.4452
rradius 34.0753
rwrist -5.58356
rhand -19.5779 -20.7017
rfingers 7.12502
rthumb 6.74729 -50.5742
lclavicle 2.40281e-014 -3.97569e-016
lhumerus -45.8699 -4.25501 75.1951
lradius 34.4436
lwrist -2.50154
lhand -23.778 32.3692
lfingers 7.12502
lthumb 2.69178 62.3319
rfemur 2.1071 24.3447 36.3756
rtibia -13.9765
rfoot -1.18998 -33.6816
rtoes -43.8837
lfemur -4.96269 -31.2352 -23.3536
ltibia -3.31137
lfoot -32.5916 -1.74745
ltoes -10.5134
4
root -38.0125 16.2932 5.41919 -101.545 86.4117 -114.064
lowerback 5.02626 2.68528 5.84974
upperback -9.71306 4.48899 -1.4213
thorax -12.8699 1.605 -5.56102
lowerneck -16.0858 6.935 11.3597
upperneck 42.4367 11.7201 -4.17866
head 20.4719 6.6934 -1.22462
rclavicle -6.07536e-014 3.97569e-016
rhumerus -44.4681 18.37 -91.3971
rradius 34.1357
rwrist -5.53158
rhand -17.2729 -23.6965
rfingers 7.12502
rthumb 8.97205 -53.4857
lclavicle -6.07536e-014 3.97569e-016
lhumerus -45.8469 -4.04558 75.0681
lradius 34.2119
lwrist -2.66851
lhand -23.9954 32.5759
lfingers 7.12502
lthumb 2.4818 62.5412
rfemur 2.11702 24.2235 36.3603
rtibia -13.9734
rfoot -0.594328 -33.6387
rtoes -44.6087
lfemur -5.00952 -31.2507 -23.3895
ltibia -3.23343
lfoot -32.4452 -2.04259
ltoes -9.98352
5
root -38.0085 16.2934 5.42604 -103.501 86.3337 -116.044
lowerback 5.0578 2.67041 5.84677
upperback -9.72952 4.47687 -1.38337
thorax -12.9141 1.59973 -5.51957
lowerneck -16.0938 7.04161 11.5645
upperneck 42.3253 11.8098 -4.22988
head 20.4399 6.7476 -1.26427
rclavicle -5.53864e-014 -2.78299e-015
rhumerus -44.556 18.4687 -91.4226
rradius 34.1461
rwrist -5.50897
rhand -16.0825 -24.9665
rfingers 7.12502
rthumb 10.1206 -54.7031
lclavicle -5.53864e-014 -2.78299e-015
lhumerus -45.975 -3.8161 74.8553
lradius 33.9837
lwrist -2.73433
lhand -23.9257 32.4102
lfingers 7.12502
lthumb 2.54912 62.3747
rfemur 2.08458 24.1015 36.4161
rtibia -13.9554
rfoot -0.21634 -33.5993
rtoes -45.0986
lfemur -5.08721 -31.2224 -23.307
ltibia -3.19297
lfoot -32.2655 -2.16349
ltoes -9.81486
6
root -38.0032 16.2934 5.43255 -105.385 86.2544 -117.958
lowerback 5.05683 2.65806 5.83101
upperback -9.74168 4.46447 -1.3446
thorax -12.9336 1.59724 -5.46713
lowerneck -16.0578 7.18281 11.866
upperneck 42.1703 11.9269 -4.30348
head 20.3836 6.82422 -1.32708
rclavicle 3.23025e-016 -1.59028e-015
rhumerus -44.6449 18.5322 -91.4275
rradius 34.1446
rwrist -5.48135
rhand -15.5457 -25.7539
rfingers 7.12502
rthumb 10.6384 -55.4646
lclavicle 3.23025e-016 -1.59028e-015
lhumerus -46.0875 -3.58608 74.6648
lradius 33.777
lwrist -2.90701
lhand -23.9212 32.4004
lfingers 7.12502
lthumb 2.55349 62.3648
rfemur 2.07214 23.9818 36.477
rtibia -13.9706
rfoot 0.193651 -33.5467
rtoes -45.6097
lfemur -5.15152 -31.2129 -23.2328
ltibia -3.1762
lfoot -32.098 -2.25498
ltoes -9.66812
7
root -37.9965 16.2933 5.43848 -107.136 86.1627 -119.74
lowerback 5.05203 2.6482 5.80223
upperback -9.76281 4.45576 -1.29744
thorax -12.9622 1.59805 -5.39898
lowerneck -15.9509 7.36154 12.2563
upperneck 41.9495 12.0605 -4.36367
head 20.2745 6.92224 -1.39803
rclavicle -5.04416e-015 -1.90833e-014
rhumerus -44.7403 18.5537 -91.4108
rradius 34.1068
rwrist -5.44179
rhand -15.161 -26.439
rfingers 7.12502
rthumb 11.0095 -56.1303
lclavicle -5.04416e-015 -1.90833e-014
lhumerus -46.2016 -3.34771 74.4898
lradius 33.5928
lwrist -3.13656
lhand -23.9088 32.4591
lfingers 7.12502
lthumb 2.56543 62.4234
rfemur 2.08166 23.8631 36.5538
rtibia -14.012
rfoot 0.628759 -33.4705
rtoes -46.15
lfemur -5.18117 -31.2285 -23.1584
ltibia -3.20953
lfoot -31.9531 -2.29226
ltoes -9.56995
8
root -37.9886 16.2932 5.44371 -108.789 86.0575 -121.417
lowerback 5.05676 2.64131 5.7528
upperback -9.79209 4.45175 -1.23676
thorax -13.008 1.60326 -5.30637
lowerneck -15.7925 7.57483 12.7555
upperneck 41.6878 12.2217 -4.44582
head 20.1451 7.0448 -1.49342
rclavicle 4.47514e-014 7.95139e-015
rhumerus -44.8346 18.5493 -91.368
rradius 34.0197
rwrist -5.40928
rhand -15.711 -26.19
rfingers 7.12502
rthumb 10.479 -55.9088
lclavicle 4.47514e-014 7.95139e-015
lhumerus -46.3148 -3.09553 74.3352
lradius 33.4331
lwrist -3.38639
lhand -23.8501 32.5081
lfingers 7.12502
lthumb 2.62208 62.4717
rfemur 2.11488 23.741 36.6492
rtibia -14.0663
rfoot 1.03472 -33.372
rtoes -46.662
lfemur -5.14514 -31.2957 -23.0918
ltibia -3.32628
lfoot -31.8606 -2.29226
ltoes -9.47281
9
root -37.9795 16.2933 5.44817 -110.352 85.9538 -122.989
lowerback 5.06148 2.64122 5.67447
upperback -9.81149 4.45377 -1.16531
thorax -13.0437 1.61551 -5.18601
lowerneck -15.5928 7.83586 13.3227
upperneck 41.384 12.427 -4.50797
head 19.9922 7.1956 -1.5811
rclavicle 2.29845e-014 6.36111e-015
rhumerus -44.8901 18.5365 -91.2906
rradius 33.8781
rwrist -5.40978
rhand -16.8363 -25.192
rfingers 7.12502
rthumb 9.39328 -54.9627
lclavicle 2.29845e-014 6.36111e-015
lhumerus -46.3979 -2.83136 74.2154
lradius 33.3016
lwrist -3.62134
lhand -23.757 32.5184
lfingers 7.12502
lthumb 2.71201 62.4809
rfemur 2.17855 23.6176 36.7517
rtibia -14.1279
rfoot 1.43946 -33.2501
rtoes -47.172
lfemur -5.03787 -31.4253 -23.0545
ltibia -3.50597
lfoot -31.8392 -2.29827
ltoes -9.32609
10
root -37.9693 16.2938 5.45203 -111.882 85.8613 -124.513
lowerback 5.0616 2.64812 5.56605
upperback -9.81518 4.46042 -1.08823
thorax -13.0593 1.63433 -5.04203
lowerneck -15.3722 8.1464 13.9474
upperneck 41.0703 12.6976 -4.56442
head 19.8482 7.37998 -1.65935
rclavicle 2.90723e-015 2.38542e-015
rhumerus -44.9033 18.5129 -91.1753
rradius 33.7028
rwrist -5.43613
rhand -17.987 -23.9291
rfingers 7.12502
rthumb 8.28287 -53.7467
lclavicle 2.90723e-015 2.38542e-015
lhumerus -46.4481 -2.58807 74.1557
lradius 33.2143
lwrist -3.7999
lhand -23.6749 32.5398
lfingers 7.12502
lthumb 2.79131 62.5013
rfemur 2.27363 23.4921 36.8468
rtibia -14.207
rfoot 1.89241 -33.1065
rtoes -47.7246
lfemur -4.89242 -31.5813 -23.0504
ltibia -3.69817
lfoot -31.8518 -2.34525
ltoes -9.12276
11
root -37.9586 16.2949 5.45565 -113.465 85.7832 -126.087
lowerback 5.0443 2.66171 5.40676
upperback -9.80964 4.469 -1.00471
thorax -13.0561 1.66064 -4.86113
lowerneck -15.1164 8.50137 14.6242
upperneck 40.766 13.04 -4.61875
head 19.7237 7.60094 -1.72736
rclavicle -8.07563e-015 -6.36111e-015
rhumerus -44.9038 18.4761 -91.0261
rradius 33.5214
rwrist -5.45919
rhand -18.5444 -23.0453
rfingers 7.12502
rthumb 7.74492 -52.8834
lclavicle -8.07563e-015 -6.36111e-015
lhumerus -46.4823 -2.41088 74.1862
lradius 33.19
lwrist -3.87023
lhand -23.6257 32.5876
lfingers 7.12502
lthumb 2.83881 62.5485
rfemur 2.38552 23.3634 36.9223
rtibia -14.3067
rfoot 2.40639 -32.9487
rtoes -48.3187
lfemur -4.75552 -31.7259 -23.0688
ltibia -3.86059
lfoot -31.8575 -2.42933
ltoes -8.93785
12
root -37.9474 16.2967 5.45915 -115.075 85.7213 -127.693
lowerback 5.0529 2.75346 5.43552
upperback -9.82612 4.58958 -1.09976
thorax -13.0569 1.70971 -5.0006
lowerneck -14.8734 8.82859 15.3353
upperneck 40.4998 13.2673 -4.50863
head 19.5991 7.80411 -1.74564
rclavicle 1.89839e-014 9.54166e-015
rhumerus -44.9226 18.0119 -90.8975
rradius 33.323
rwrist -5.35841
rhand -18.5207 -22.6027
rfingers 7.12502
rthumb 7.76782 -52.44
lclavicle 1.89839e-014 9.54166e-015
lhumerus -46.4283 -2.73027 74.2792
lradius 33.2438
lwrist -3.71471
lhand -23.6003 32.6317
lfingers 7.12502
lthumb 2.86335 62.5922
rfemur 2.50294 23.2358 36.9692
rtibia -14.4294
rfoot 2.94286 -32.7965
rtoes -48.905
lfemur -4.67498 -31.8148 -23.0987
ltibia -3.93642
lfoot -31.8204 -2.52411
ltoes -8.8492
13
root -37.9363 16.2989 5.46251 -116.756 85.6771 -129.381
lowerback 5.07308 2.86861 5.49787
upperback -9.86138 4.74211 -1.25399
thorax -13.0757 1.76603 -5.23059
lowerneck -14.6169 9.13914 16.0873
upperneck 40.2868 13.4836 -4.39869
head 19.5127 8.01214 -1.77121
rclavicle 3.73715e-014 -1.23246e-014
rhumerus -44.9815 17.3875 -90.7538
rradius 33.1477
rwrist -5.05583
rhand -18.0985 -22.5303
rfingers 7.12502
rthumb 8.17525 -52.3521
lclavicle 3.73715e-014 -1.23246e-014
lhumerus -46.3709 -3.28774 74.4549
lradius 33.3843
lwrist -3.40688
lhand -23.6035 32.6619
lfingers 7.12502
lthumb 2.86024 62.6224
rfemur 2.60892 23.1081 36.974
rtibia -14.5661
rfoot 3.52377 -32.643
rtoes -49.5182
lfemur -4.67828 -31.7955 -23.1413
ltibia -3.89887
lfoot -31.6898 -2.53405
ltoes -8.95002
